<svg width="141" height="42" viewBox="0 0 141 42" fill="none" xmlns="http://www.w3.org/2000/svg">
<path d="M55.1345 29.4429C55.6094 29.4429 56.0729 29.3979 56.5248 29.3192L58.1862 32.7786H61.4752L59.4973 29.3529C59.2261 28.8795 58.8306 28.6655 58.5479 28.6317C60.8763 27.3922 62.3794 24.7552 62.3794 20.924C62.3794 15.5153 59.26 12.5065 55.1458 12.5065C50.9075 12.5065 47.9125 15.5153 47.9125 20.924C47.9125 26.4004 51.1222 29.4429 55.1345 29.4429ZM55.1345 26.9753C52.7272 26.9753 50.6477 25.0596 50.6477 20.9465C50.6477 16.9462 52.7272 14.9744 55.1458 14.9744C57.6663 14.9744 59.6442 16.9462 59.6442 20.9465C59.6442 25.0596 57.6663 26.9753 55.1345 26.9753Z" fill="#6A4FF4"/>
<path d="M67.1133 29.4659C69.5435 29.4659 70.538 27.8885 70.9109 26.0968L71.1143 29.2181H73.3863V16.9129H70.7188V25.4544C70.3346 26.2771 69.3514 27.0546 68.2209 27.0546C66.8083 27.0546 66.2317 26.2546 66.2317 24.4404V16.9129H63.5645V25.1503C63.5645 27.9335 64.9774 29.4659 67.1133 29.4659Z" fill="#6A4FF4"/>
<path d="M76.6489 15.0867C77.5983 15.0867 78.3896 14.343 78.3896 13.2837C78.3896 12.236 77.6096 11.492 76.6489 11.492C75.677 11.492 74.897 12.236 74.897 13.2837C74.897 14.343 75.677 15.0867 76.6489 15.0867ZM75.2815 29.2174H77.9374L77.9825 16.9234H75.2815V29.2174Z" fill="#6A4FF4"/>
<path d="M84.8818 29.4319C87.3569 29.4319 89.6514 27.8542 89.5724 25.2513H87.0294C87.0632 26.4571 85.8199 27.1896 85.0401 27.1896C82.7908 27.1783 81.7512 25.8147 81.7512 22.9752C81.7512 20.4961 82.5535 18.9296 84.6559 18.9409C86.2267 18.9524 86.9726 19.8086 87.0181 21.1498H89.5724C89.6627 18.6818 87.9223 16.6873 84.6446 16.6873C81.3215 16.6873 79.0386 19.0312 79.0386 23.0315C79.0386 26.8515 81.1974 29.4319 84.8818 29.4319Z" fill="#6A4FF4"/>
<path d="M90.5161 29.2184H93.161V24.3166L93.0027 22.5811L97.614 29.2184H101.05L96.5744 23.4941L95.704 22.5249L96.5631 21.5109L100.643 16.9244H97.1169L95.0032 19.6514L93.0027 22.4461L93.161 20.8009V11.6848H90.5161V29.2184Z" fill="#6A4FF4"/>
<path d="M101.249 29.2171H103.917V20.9687C104.301 19.9319 105.555 19.4023 106.426 19.4023C106.912 19.4023 107.522 19.436 108.042 19.6051V16.7653C107.782 16.6978 107.477 16.6641 107.172 16.6641C105.035 16.6641 104.097 18.3655 103.736 20.0897L103.532 16.9231H101.249V29.2171Z" fill="#6A4FF4"/>
<path d="M108.563 33.759H111.219V29.2291L111.072 27.0318C111.242 27.877 112.056 29.3531 114.508 29.3531C116.915 29.3531 119.278 27.2008 119.278 22.8399C119.278 19.313 117.684 16.6873 114.7 16.6873C112.067 16.6873 111.276 18.479 111.219 19.4593V18.6143L111.185 16.9239H108.563V33.759ZM113.807 18.9524C115.401 18.9524 116.542 20.4173 116.542 23.0652C116.542 26.119 115.31 27.3249 113.638 27.3249C112.112 27.3249 111.355 26.7727 111.219 26.1865V20.3045C111.366 19.8199 112.112 18.9524 113.807 18.9524Z" fill="#6A4FF4"/>
<path d="M123.73 29.3531C125.844 29.3531 126.997 28.1248 127.279 26.4571L127.245 29.2178H129.856V21.1722C129.856 17.6338 127.709 16.6873 125.222 16.6873C122.046 16.6873 120.023 18.1072 120.283 21.296H122.713C122.747 19.3468 123.538 18.9184 125.075 18.9184C126.669 18.9184 127.279 19.7524 127.279 21.4201V21.9159C126.533 21.9722 124.634 22.1075 123.188 22.4231C121.131 22.8624 119.876 23.8427 119.876 26.0062C119.876 27.9783 121.47 29.3531 123.73 29.3531ZM124.442 27.3474C123.549 27.3474 122.77 26.7274 122.77 25.7359C122.77 24.5867 123.47 24.1133 125.154 23.7639C125.742 23.6399 126.669 23.4708 127.279 23.4033V25.6569C127.03 26.6937 125.606 27.3474 124.442 27.3474Z" fill="#6A4FF4"/>
<path d="M131.043 34.0746H132.015C134.998 34.0746 136.061 32.2038 137.033 29.2178L141 16.9238H138.061L136.649 22.5468L135.62 26.6036H135.518L134.377 22.5355L132.964 16.9238H130.003L134.027 29.2178H134.908C134.614 29.3531 134.433 29.6346 134.264 30.2996C134.049 31.1448 133.642 31.5954 132.015 31.5954H131.043V34.0746Z" fill="#6A4FF4"/>
<path fill-rule="evenodd" clip-rule="evenodd" d="M21.3674 0.658264C25.1462 0.658264 28.5703 1.57821 31.6573 3.39994C34.7443 5.23955 37.2104 7.69823 39.0379 10.7584C40.883 13.8361 41.8054 17.2678 41.8054 21.0353V41.3417H21.4204C17.6769 41.3417 14.2528 40.4221 11.1658 38.6C8.06084 36.7604 5.59505 34.3017 3.74992 31.2061C1.92243 28.1105 1 24.7145 1 20.9822C1 17.2502 1.92243 13.8361 3.74992 10.7584C5.59505 7.69823 8.04348 5.23955 11.1302 3.39994C14.2175 1.57821 17.6236 0.658264 21.3674 0.658264ZM33.4848 28.9716L16.6931 28.7956L28.8796 14.87L33.4848 25.4057L35.0504 28.988L33.4848 28.9716ZM12.2971 13.0604L26.1124 13.2052L13.9258 27.1302L9.76738 17.6166C9.7069 17.8315 9.65251 18.0493 9.60419 18.2694C9.65251 18.0493 9.70662 17.8312 9.76709 17.616L7.755 13.0128L12.2968 13.0604H12.2971ZM9.5414 18.5769C9.52491 18.6623 9.50958 18.7483 9.49511 18.8345C9.50958 18.7483 9.52491 18.6623 9.5414 18.5769ZM9.46993 18.9909C9.45662 19.0777 9.4439 19.1649 9.43232 19.2525C9.4439 19.1651 9.45633 19.0777 9.46993 18.9909ZM9.39442 19.5699C9.38313 19.6763 9.373 19.7828 9.36432 19.8901C9.37329 19.7828 9.38313 19.6763 9.39442 19.5699ZM9.36432 19.8904C9.3513 20.0513 9.34118 20.2135 9.33394 20.377C9.34118 20.2135 9.3513 20.0516 9.36432 19.8904ZM9.33394 20.3773C9.32526 20.5772 9.32092 20.7789 9.32092 20.9825L9.32063 20.9822C9.32063 20.7786 9.32497 20.5769 9.33394 20.3773ZM13.2065 29.8312C13.2823 29.9013 13.3587 29.9703 13.4348 30.0381L13.2065 29.8312ZM13.438 30.0314C13.5155 30.0969 13.5939 30.1613 13.6721 30.2244C13.5939 30.1613 13.5155 30.0969 13.438 30.0314ZM14.1486 30.5902C14.2288 30.6488 14.3101 30.7065 14.3911 30.7627C14.3098 30.7065 14.2288 30.6488 14.1486 30.5902ZM14.3911 30.763C14.5129 30.8475 14.6362 30.9292 14.7597 31.0088C14.6359 30.9295 14.5129 30.8475 14.3911 30.763ZM14.76 31.0088C15.1318 31.2471 15.5134 31.462 15.9041 31.6538V31.6541C15.9909 31.6968 16.0779 31.7384 16.1659 31.7785V31.7787L16.2978 31.8382C16.6063 31.9752 16.9208 32.0984 17.2408 32.2074C16.9208 32.0984 16.6066 31.9755 16.2978 31.8382L14.76 31.0088ZM16.5383 31.6273C16.7267 31.6758 16.9167 31.7196 17.1086 31.7588C16.9167 31.7196 16.7264 31.6758 16.5383 31.6273ZM13.2221 30.1794C13.5939 30.4177 13.9756 30.6326 14.3662 30.8245L13.2221 30.1794Z" fill="#6A4FF4" stroke="url(#paint0_linear_2838_29760)" stroke-width="0.0762" stroke-miterlimit="22.9256"/>
<defs>
<linearGradient id="paint0_linear_2838_29760" x1="21.4027" y1="0.658264" x2="21.4027" y2="41.3417" gradientUnits="userSpaceOnUse">
<stop stop-color="#6A4FF4"/>
<stop offset="1" stop-color="#5638EE"/>
</linearGradient>
</defs>
</svg>
