<svg class="svg-icon" style="width: 1em; height: 1em;vertical-align: middle;fill: currentColor;overflow: hidden;" viewBox="0 0 1024 1024" version="1.1" xmlns="http://www.w3.org/2000/svg"><path d="M320 469.333333a85.333333 85.333333 0 1 0 0-170.666666H128v170.666666h192z m42.666667 85.333334H128v170.666666h234.666667a85.333333 85.333333 0 1 0 0-170.666666z m88.021333-60.928A170.666667 170.666667 0 0 1 362.666667 810.666667H42.666667V213.333333h277.333333a170.666667 170.666667 0 0 1 130.688 280.405334zM661.333333 256H896v64h-234.666667V256z m320 362.666667h-320v10.666666A117.333333 117.333333 0 0 0 883.2 682.666667h91.050667a202.752 202.752 0 0 1-398.250667-53.333334v-64a202.666667 202.666667 0 1 1 405.333333 0v53.333334z m-89.770666-85.333334a117.376 117.376 0 0 0-225.792 0h225.792z"  /></svg>